<?xml version="1.0" standalone="no"?>
<!DOCTYPE svg PUBLIC "-//W3C//DTD SVG 20010904//EN"
 "http://www.w3.org/TR/2001/REC-SVG-20010904/DTD/svg10.dtd">
<svg version="1.0" xmlns="http://www.w3.org/2000/svg"
 width="7730.000000pt" height="7730.000000pt" viewBox="0 0 7730.000000 7730.000000"
 preserveAspectRatio="xMidYMid meet">
<metadata>
Created by potrace 1.16, written by Peter Selinger 2001-2019
</metadata>
<g transform="translate(0.000000,7730.000000) scale(0.100000,-0.100000)"
fill="#000000" stroke="none">
<path d="M47430 63350 c-3039 -170 -5566 -313 -5617 -319 -255 -30 -461 -176
-568 -403 -54 -113 -70 -187 -69 -318 0 -130 21 -218 78 -325 17 -33 185 -265
372 -515 482 -645 847 -1139 1397 -1895 64 -88 117 -165 117 -172 0 -6 -73
-128 -163 -270 -90 -142 -268 -424 -396 -626 -127 -202 -255 -402 -283 -444
l-51 -76 7 -101 c37 -582 205 -1377 438 -2070 560 -1676 1540 -3111 2892
-4235 632 -526 1405 -1008 2256 -1407 1313 -615 2495 -941 3685 -1015 244 -15
812 -7 1035 15 568 57 1080 177 1575 370 255 100 643 305 794 420 53 41 60 53
728 1286 371 685 677 1248 681 1252 4 4 19 10 35 13 26 7 27 6 27 -32 0 -104
-81 -453 -184 -788 -219 -720 -654 -1887 -1166 -3129 l-131 -319 -200 -264
c-266 -351 -659 -860 -1129 -1464 -426 -546 -463 -598 -554 -779 -358 -705
-487 -1881 -375 -3420 50 -690 140 -1398 270 -2110 41 -225 32 -208 87 -163
877 705 1512 1843 1898 3397 217 876 342 1829 385 2946 13 350 7 1223 -12
1566 l-12 221 91 196 c584 1252 1060 2494 1247 3252 105 425 133 686 99 910
l-6 40 1919 339 c1055 186 1943 345 1973 352 30 8 92 33 138 55 274 138 438
471 378 769 -37 180 -27 165 -558 883 -1837 2487 -3536 4679 -4757 6137 -671
802 -1160 1349 -1611 1801 -628 630 -811 751 -1127 748 -59 -1 -2594 -140
-5633 -309z m-4410 -1542 c40 -20 58 -44 161 -203 125 -194 1472 -2279 1574
-2435 61 -94 231 -357 911 -1410 194 -300 386 -597 427 -660 41 -63 229 -353
417 -645 538 -832 868 -1342 935 -1445 34 -52 337 -522 675 -1045 338 -522
637 -982 667 -1021 138 -185 351 -319 588 -370 168 -36 120 -40 2202 180 1074
113 1968 206 1987 206 25 0 40 -7 55 -26 26 -33 26 -55 3 -84 -20 -25 2 -22
-982 -134 -482 -55 -1581 -181 -2405 -276 -697 -80 -694 -80 -886 -44 -281 53
-553 221 -723 448 -29 39 -449 672 -933 1407 -911 1381 -947 1435 -1705 2584
-450 682 -679 1030 -1032 1565 -99 151 -257 390 -351 532 -93 142 -254 385
-356 540 -103 156 -442 670 -755 1143 -716 1085 -674 1018 -674 1069 0 56 31
103 83 126 54 25 63 25 117 -2z m11446 -15217 c56 -34 80 -121 50 -180 -8 -15
-55 -60 -104 -99 -295 -235 -593 -662 -810 -1157 -415 -949 -585 -2207 -502
-3704 13 -227 16 -360 10 -371 -14 -26 -47 -31 -71 -11 -19 16 -23 45 -54 401
-132 1520 3 2778 406 3788 155 388 371 757 602 1030 90 106 246 255 306 294
54 34 120 38 167 9z m-191 -1521 c57 -35 77 -103 55 -180 -33 -113 -304 -1412
-640 -3070 -100 -492 -188 -905 -196 -917 -31 -48 -107 -42 -129 10 -12 29 4
130 175 1132 419 2453 507 2933 545 2988 40 57 129 75 190 37z"/>
<path d="M43949 41291 c-91 -61 -175 -214 -213 -391 -9 -41 -97 -604 -196
-1250 -449 -2924 -2164 -14084 -2261 -14710 -39 -256 -72 -495 -72 -532 l0
-67 -451 -3 c-435 -3 -453 -4 -497 -24 -55 -26 -111 -79 -141 -137 l-23 -42 0
-2700 0 -2700 23 -42 c12 -23 38 -58 57 -78 l36 -35 -1924 0 c-1660 0 -1936
-2 -2010 -15 -286 -50 -596 -241 -904 -558 -431 -444 -696 -997 -785 -1637
-18 -135 -21 -4150 -2 -4325 34 -320 136 -655 284 -932 302 -566 778 -1008
1235 -1150 l90 -28 15717 -3 c15711 -2 15718 -2 15738 18 20 20 20 33 20 648
0 527 -2 631 -14 648 -14 19 -179 19 -14833 24 l-14818 5 -80 23 c-44 12 -123
43 -174 68 -390 187 -670 643 -731 1189 -8 70 -10 560 -8 1645 4 1696 0 1581
64 1834 40 162 70 242 154 411 84 170 161 283 276 405 152 162 367 293 569
348 l100 27 4605 3 4605 2 1 -37 c1 -44 40 -83 84 -83 33 0 177 49 259 88 l56
27 1283 5 1283 5 144 341 144 340 26 155 c170 1012 483 2338 793 3361 l30 98
-27 -23 c-15 -12 -138 -119 -274 -238 -255 -224 -644 -556 -1043 -888 -273
-227 -289 -247 -289 -371 0 -102 16 -130 161 -284 l121 -129 -27 -26 c-15 -14
-66 -69 -114 -122 -293 -326 -910 -791 -1586 -1195 -404 -242 -397 -239 -456
-180 -39 39 -44 77 -18 128 9 18 20 44 25 60 4 15 93 175 197 356 104 180 386
669 627 1087 866 1503 2001 3458 2544 4380 78 131 141 243 141 247 0 4 -2266
8 -5035 8 -2769 0 -5035 2 -5035 5 0 2 97 552 215 1222 119 670 294 1661 390
2203 96 542 278 1572 405 2290 127 718 302 1710 390 2205 88 495 250 1411 360
2035 110 624 358 2026 551 3115 328 1853 439 2480 475 2685 9 47 19 108 24
135 5 28 23 131 41 230 56 308 43 559 -35 714 -70 138 -167 178 -267 112z"/>
<path d="M35703 41174 c-116 -58 -196 -334 -173 -598 5 -55 40 -279 79 -496
111 -629 516 -2915 706 -3990 96 -542 271 -1534 390 -2205 119 -671 294 -1663
390 -2205 96 -542 219 -1239 274 -1550 55 -311 217 -1229 361 -2040 143 -811
287 -1626 320 -1810 33 -184 127 -717 210 -1185 82 -467 157 -870 165 -895 18
-51 40 -81 74 -100 20 -10 27 -9 50 7 32 24 60 101 61 165 0 49 -21 185 -685
4508 -623 4051 -1432 9319 -1641 10680 -101 663 -192 1241 -200 1285 -63 316
-230 503 -381 429z"/>
<path d="M57475 38509 c-178 -26 -381 -121 -547 -256 l-68 -55 -212 70 c-270
89 -475 145 -614 168 -146 24 -394 24 -524 0 -472 -86 -829 -388 -984 -834
-57 -164 -79 -301 -74 -456 4 -109 9 -144 31 -209 62 -180 189 -314 381 -402
85 -40 230 -81 319 -91 l60 -7 -5 174 -5 174 42 60 c55 78 206 221 277 263 31
18 89 45 130 60 63 22 89 26 188 26 79 0 135 -5 180 -17 98 -27 294 -127 390
-201 91 -68 252 -220 314 -296 l37 -45 37 22 c24 14 36 28 34 40 -1 10 -4 62
-7 115 -2 56 -10 109 -19 125 -53 105 -71 255 -37 328 61 136 287 179 394 77
73 -69 120 -211 138 -414 12 -131 13 -134 55 -198 56 -87 94 -155 645 -1180
l476 -885 39 -5 c45 -6 132 -64 401 -266 763 -574 1575 -1349 2212 -2113 131
-158 167 -195 185 -193 47 8 178 65 261 115 205 122 440 399 540 636 112 265
98 499 -45 766 -65 121 -90 214 -90 335 0 110 18 193 59 284 60 133 134 215
288 321 130 90 284 246 351 354 130 212 168 458 112 732 -55 267 -215 588
-413 826 -418 502 -1127 711 -1969 582 -269 -42 -363 -35 -511 38 -99 50 -216
168 -276 280 -116 219 -272 310 -636 373 -307 53 -359 76 -454 200 -36 47
-113 134 -171 194 -197 203 -382 319 -595 371 -81 20 -233 26 -320 14z"/>
<path d="M25143 34309 c-191 -14 -396 -66 -528 -131 -169 -85 -316 -221 -395
-367 -49 -91 -72 -121 -94 -121 -8 0 -35 20 -60 45 -65 62 -134 83 -231 66
-185 -31 -302 -148 -361 -361 -29 -102 -26 -352 4 -488 29 -130 80 -277 138
-398 24 -51 44 -99 44 -107 0 -19 -33 -47 -56 -47 -32 -1 -97 -35 -128 -69
-60 -63 -42 -181 47 -309 178 -255 452 -475 644 -515 68 -14 72 -11 121 126
l38 108 -58 117 c-84 169 -112 283 -113 447 0 102 4 142 19 184 59 170 263
236 387 124 82 -75 117 -193 126 -425 l6 -157 47 -19 47 -20 6 187 c12 393 87
619 232 693 36 19 51 20 165 15 69 -3 226 -17 350 -31 814 -91 1258 -92 1570
-6 166 46 313 151 414 294 167 235 216 546 129 820 -32 101 -58 154 -117 234
-54 73 -77 79 -136 32 -59 -47 -110 -37 -110 21 0 55 -49 75 -98 40 -123 -86
-316 -131 -564 -131 -173 0 -312 17 -578 70 -234 47 -377 67 -570 80 -160 11
-189 11 -337 -1z"/>
<path d="M49496 31425 c-68 -28 -147 -99 -176 -161 -31 -62 -43 -147 -31 -204
15 -71 1536 -3915 1574 -3979 39 -66 120 -140 192 -175 120 -58 37 -56 1772
-56 l1592 0 98 -66 c370 -251 599 -507 767 -855 135 -279 226 -614 320 -1179
20 -118 39 -225 41 -238 4 -18 38 -39 156 -97 l151 -75 -616 0 -616 0 0 -67
c0 -183 -39 -457 -100 -696 -232 -919 -872 -2085 -1943 -3539 -277 -376 -490
-651 -1076 -1391 -95 -120 -182 -239 -194 -265 -43 -95 -20 -219 55 -293 19
-19 94 -74 166 -123 102 -69 129 -92 118 -100 -7 -6 -29 -41 -50 -78 -130
-238 -388 -577 -695 -912 -248 -271 -879 -877 -976 -937 -38 -24 -62 -24 -103
1 -45 28 -57 62 -43 129 6 30 9 56 8 57 -6 7 -152 -327 -199 -456 -61 -166
-111 -359 -132 -508 -24 -168 -22 -198 13 -233 19 -18 40 -29 58 -29 70 0 417
244 734 516 436 373 1160 1086 1730 1701 l104 113 7718 0 c7704 0 7717 0 7737
20 20 20 20 33 20 653 0 601 -1 635 -18 650 -15 14 -40 17 -122 17 l-104 0 46
48 c25 26 54 63 64 82 18 34 19 123 19 2735 l0 2700 -29 53 c-32 58 -77 99
-141 128 -39 18 -114 19 -2146 22 l-2106 2 20 78 c31 117 30 424 -1 578 -87
432 -424 1143 -959 2024 l-119 195 -1320 -4 -1320 -3 -34 32 c-74 69 52 64
-1600 68 l-1495 4 -875 1856 c-481 1021 -896 1888 -921 1927 -93 143 -247 259
-421 318 l-93 32 -2220 2 -2220 3 -59 -25z m15354 -9990 l0 -2235 -1415 0
-1415 0 0 2235 0 2235 1415 0 1415 0 0 -2235z m-3240 -10 l0 -2225 -530 0
-530 0 0 2194 0 2193 188 7 c201 7 603 32 742 45 47 5 95 9 108 10 l22 1 0
-2225z"/>
<path d="M20437 28838 c-253 -236 -665 -653 -877 -888 -52 -58 -98 -107 -101
-110 -3 -3 -61 -70 -128 -149 -727 -851 -1071 -1498 -1021 -1921 5 -41 9 -78
10 -82 2 -31 80 -52 97 -25 4 6 8 86 8 177 0 139 4 178 22 245 97 350 348 769
779 1300 126 156 313 373 417 485 144 155 570 599 577 602 4 2 71 64 147 138
77 74 174 168 216 208 47 44 77 80 77 93 0 37 -19 59 -51 59 -25 0 -55 -23
-172 -132z"/>
<path d="M30033 28915 c-259 -47 -500 -207 -646 -430 -25 -38 -366 -749 -758
-1580 -391 -830 -867 -1838 -1056 -2240 -190 -401 -348 -737 -352 -747 -5 -15
-147 -17 -1816 -23 -1998 -7 -1863 -2 -1943 -71 -22 -19 -53 -59 -68 -89 -24
-50 -26 -64 -22 -134 7 -117 60 -195 163 -242 39 -18 220 -19 4946 -19 4853 0
4907 0 4983 20 104 26 187 72 266 147 113 106 -43 -269 1415 3415 321 812 587
1498 592 1525 35 201 -81 397 -274 464 -55 19 -108 19 -2707 18 -2128 -1
-2665 -3 -2723 -14z"/>
<path d="M17447 22038 c-3 -13 -15 -86 -26 -163 -100 -696 -47 -1180 166
-1514 115 -180 334 -338 1163 -839 799 -483 1173 -741 1519 -1045 372 -329
593 -600 759 -932 67 -136 91 -204 331 -950 496 -1539 795 -2324 1170 -3075
278 -555 523 -929 790 -1202 110 -114 98 -110 285 -78 218 37 436 101 577 168
44 21 81 36 83 33 2 -3 41 -134 86 -291 81 -279 83 -286 72 -339 -25 -118 -90
-170 -242 -197 -235 -40 -380 10 -477 168 l-37 60 -9 -28 c-11 -37 -1 -185 17
-249 88 -326 430 -722 846 -980 293 -181 663 -338 1077 -455 457 -130 966
-197 1103 -146 85 32 120 83 120 176 0 154 -129 373 -341 580 -81 79 -88 89
-94 135 -11 83 -44 204 -80 292 -167 415 -623 946 -1254 1461 l-124 102 -35
-32 c-100 -87 -239 -110 -387 -64 -69 22 -86 31 -89 49 -3 12 -21 130 -41 262
-103 685 -307 1902 -430 2565 -210 1126 -369 1803 -517 2200 -308 825 -579
1404 -869 1859 -44 68 -77 126 -75 129 6 6 266 -88 492 -178 582 -233 1154
-525 1594 -816 156 -102 239 -173 323 -272 250 -297 368 -661 384 -1177 16
-551 -104 -1215 -358 -1976 -140 -420 -355 -952 -511 -1263 -27 -54 -47 -104
-45 -111 8 -20 154 -133 282 -218 138 -91 379 -212 510 -256 101 -33 274 -71
329 -71 41 0 32 -11 204 272 974 1607 1636 3195 1796 4309 103 714 22 1254
-247 1648 -102 151 -339 365 -628 571 -604 430 -1478 842 -2530 1194 -686 230
-1658 490 -2267 607 -52 10 -62 15 -56 28 18 43 17 53 -2 48 -112 -33 -316
-72 -509 -98 -152 -21 -211 -23 -545 -24 -371 0 -442 4 -700 41 -124 17 -334
58 -442 85 -73 18 -123 19 -1091 19 l-1015 0 -5 -22z"/>
</g>
</svg>
